<svg aria-hidden="true" style="position: absolute; width: 0; height: 0; overflow: hidden;" version="1.1" xmlns="http://www.w3.org/2000/svg" xmlns:xlink="http://www.w3.org/1999/xlink">
<defs>
<symbol id="facebook" viewBox="0 0 32 32">
<title>facebook</title>
<path d="M23.999 0.007l-4.15-0.007c-4.662 0-7.675 3.091-7.675 7.875v3.631h-4.172c-0.36 0-0.652 0.292-0.652 0.652 0 0 0 0 0 0v-0 5.261c0 0.36 0.292 0.652 0.652 0.652v0h4.172v13.275c0 0.36 0.292 0.653 0.652 0.653h5.444c0.36 0 0.652-0.292 0.652-0.652v0-13.275h4.878c0.36 0 0.652-0.292 0.652-0.652v0l0.002-5.261c-0-0.36-0.292-0.652-0.653-0.653h-4.88v-3.078c0-1.479 0.353-2.23 2.28-2.23l2.795-0.001c0.36-0 0.652-0.292 0.652-0.652v0-4.885c0 0 0 0 0 0 0-0.36-0.292-0.652-0.651-0.652h-0z"></path>
</symbol>
<symbol id="instagram" viewBox="0 0 32 32">
<title>instagram</title>
<path d="M23.169 0h-14.338c-4.869 0-8.831 3.962-8.831 8.831v14.338c0 4.869 3.961 8.831 8.831 8.831h14.338c4.87 0 8.831-3.962 8.831-8.831v-14.338c0-4.869-3.961-8.831-8.831-8.831zM29.161 23.169c0 3.304-2.688 5.992-5.992 5.992h-14.338c-3.304 0-5.991-2.688-5.991-5.992v-14.338c0-3.304 2.688-5.992 5.991-5.992h14.338c3.304 0 5.992 2.688 5.992 5.992v14.338z"></path>
<path d="M16 7.755c-4.547 0-8.246 3.699-8.246 8.246s3.699 8.245 8.246 8.245 8.246-3.699 8.246-8.245c0-4.547-3.699-8.246-8.246-8.246zM16 21.406c-2.981 0-5.406-2.425-5.406-5.406s2.425-5.406 5.406-5.406 5.406 2.425 5.406 5.406c0 2.981-2.425 5.406-5.406 5.406zM24.591 5.347c-0.547 0-1.084 0.221-1.471 0.609-0.377 0.377-0.61 0.897-0.611 1.472v0c0 0.547 0.223 1.085 0.611 1.473 0.386 0.386 0.924 0.609 1.471 0.609 0.549 0 1.085-0.223 1.473-0.609 0.388-0.388 0.609-0.926 0.609-1.473 0-0.549-0.221-1.086-0.609-1.473-0.386-0.388-0.924-0.609-1.473-0.609z"></path>
</symbol>
<symbol id="twitter" viewBox="0 0 32 32">
<title>twitter</title>
<path d="M32 6.079c-1.098 0.5-2.371 0.864-3.706 1.028l-0.063 0.006c1.356-0.812 2.394-2.1 2.885-3.629-1.272 0.752-2.675 1.298-4.171 1.594-1.198-1.278-2.901-2.074-4.791-2.074-3.625 0-6.565 2.939-6.565 6.563 0 0.514 0.058 1.016 0.17 1.496-5.455-0.274-10.292-2.887-13.529-6.859-0.566 0.968-0.888 2.096-0.888 3.299 0 2.278 1.16 4.287 2.919 5.463-1.097-0.037-2.116-0.338-3.006-0.841l0.033 0.017v0.082c0 3.179 2.264 5.833 5.265 6.437-0.55 0.148-1.13 0.23-1.73 0.23-0.424 0-0.834-0.042-1.236-0.122 0.836 2.61 3.259 4.507 6.131 4.559-2.246 1.76-5.077 2.805-8.152 2.805-0.53 0-1.052-0.032-1.566-0.090 2.905 1.866 6.355 2.953 10.062 2.953 12.076 0 18.677-10.002 18.677-18.677l-0.022-0.85c1.29-0.92 2.405-2.076 3.283-3.391z"></path>
</symbol>
</defs>
</svg>
